# xmcd CD database file
# Copyright (C) 1995-1998 Ti Kan
#
# Track frame offsets:
#	150
#	13588
#	30211
#	61505
#	73270
#	87693
#	98335
#	110207
#	123578
#	142519
#	154329
#	168447
#
# Disc length: 2381 seconds
#
# Revision: 1
# Processed by: cddbd v1.4PL0 Copyright (c) Steve Scherf et al.
# Submitted via: CDex 1.30Release
#
DISCID=94094b0c
DTITLE=Borders Presents - A Mess Of Blues
DYEAR=2001
DGENRE=Blues
TTITLE0=Buddy Guy- This Is The End
TTITLE1=Otis Rush- I Can't Quit You Baby
TTITLE2=Brownie McGhee, Sonny Terry, Lightin' Hopkins- Blues For Gamblers
TTITLE3=Elmore James- Knockin' At Your Door
TTITLE4=Mississippi John Hurt- Candy Man
TTITLE5=Albert Collins- Collins Shuffle
TTITLE6=Robert Lockwood Jr.- A'w A'w Baby
TTITLE7=Magic Sam- All Your Love
TTITLE8=Sonny Boy Willamson w/The Animals- Night Time Is The Right Time
TTITLE9=Big Bill Broonzy- Black, Brown and White
TTITLE10=Ike Turner- Down and Out
TTITLE11=Junior Wells- Messin With The Kid
EXTD=YEAR: 2001 ID3G:   0
EXTT0=
EXTT1=
EXTT2=
EXTT3=
EXTT4=
EXTT5=
EXTT6=
EXTT7=
EXTT8=
EXTT9=
EXTT10=
EXTT11=
PLAYORDER=
